<?xml version="1.0" encoding="UTF-8"?>
<svg id="Layer_1" xmlns="http://www.w3.org/2000/svg" version="1.1" viewBox="0 0 1920 1080">
  <!-- Generator: Adobe Illustrator 30.3.0, SVG Export Plug-In . SVG Version: 2.1.3 Build 182)  -->
  <defs>
    <style>
      .st0 {
        fill: #404042;
      }

      .st1 {
        fill: #e8e8e8;
      }
    </style>
  </defs>
  <path class="st0" d="M1290.73-1256.9h-350.26c-3.93,0-7.83.73-11.49,2.15l-311.2,120.75c-12.23,4.74-20.28,16.51-20.28,29.63v540.72c0,17.55,14.23,31.78,31.78,31.78h350.26c3.93,0,7.83-.73,11.49-2.15l311.2-120.75c12.23-4.74,20.28-16.51,20.28-29.63v-540.72c0-17.55-14.23-31.78-31.78-31.78ZM1120.85-971.66h-201.24l-10.87,47.38h176.67l-13.71,59.77h-176.67l-24.58,107.15h-85.01l54.14-236.02c5.11-22.27,24.92-38.05,47.77-38.05h247.21l-13.71,59.77Z"/>
  <path class="st1" d="M1290.73,177.49h-350.26c-3.93,0-7.83.73-11.49,2.15l-311.2,120.75c-12.23,4.74-20.28,16.51-20.28,29.63v540.72c0,17.55,14.23,31.78,31.78,31.78h350.26c3.93,0,7.83-.73,11.49-2.15l311.2-120.75c12.23-4.74,20.28-16.51,20.28-29.63V209.27c0-17.55-14.23-31.78-31.78-31.78ZM1120.85,462.74h-201.24l-10.87,47.38h176.67l-13.71,59.77h-176.67l-24.58,107.15h-85.01l54.14-236.02c5.11-22.27,24.92-38.05,47.77-38.05h247.21l-13.71,59.77Z"/>
</svg>